<svg xmlns="http://www.w3.org/2000/svg" viewBox="0 0 256 256" role="img" aria-labelledby="title">
  <title id="title">Gomzang mark</title>
  <defs>
    <style>
      .ink { stroke: #101010; fill: none; stroke-linecap: butt; stroke-linejoin: round; }
      .node { fill: #101010; }
      .signal { fill: #22c743; }
      .signal-ring { fill: #ffffff; stroke: #22c743; stroke-width: 7; }
    </style>
  </defs>
  <path class="ink" stroke-width="13" d="M60 126a69 69 0 0 1 83-68" />
  <path class="ink" stroke-width="13" d="M151 58a69 69 0 0 1 41 26" />
  <path class="ink" stroke-width="13" d="M198 143a69 69 0 0 1-58 57" />
  <path class="ink" stroke-width="13" d="M132 200a69 69 0 0 1-78-61" />
  <path class="ink" stroke-width="12" d="M150 148h48" />
  <path class="ink" stroke-width="5" d="M86 155l41-92" />
  <path class="ink" stroke-width="5" d="M86 155l39-28" />
  <path class="ink" stroke-width="5" d="M134 127h39" />
  <circle class="node" cx="128" cy="55" r="11" />
  <circle class="node" cx="55" cy="128" r="11" />
  <circle class="node" cx="128" cy="201" r="11" />
  <circle class="node" cx="127" cy="127" r="13" />
  <circle class="signal" cx="86" cy="155" r="12" />
  <circle class="signal-ring" cx="181" cy="127" r="10" />
</svg>
